<svg width="519" height="167" viewBox="0 0 519 167" fill="none" xmlns="http://www.w3.org/2000/svg">
<rect x="210" y="0.5" width="100" height="166" rx="9.5" stroke="white"/>
<path d="M241.56 52.5282C240.897 52.0868 240.5 51.3441 240.5 50.5485V50.5465C240.5 49.1401 241.64 48 243.047 48H276.172C277.579 48 278.719 49.1401 278.719 50.5465V50.5478V50.5485C278.719 51.3441 278.322 52.0868 277.659 52.5282C274.427 54.6838 264.686 61.1772 261.023 63.6195C260.167 64.1902 259.052 64.1902 258.196 63.6195C254.533 61.1772 244.793 54.6838 241.56 52.5282Z" stroke="white" stroke-miterlimit="10" stroke-linecap="round" stroke-linejoin="round"/>
<path d="M240.5 50.5479V73.4794C240.5 74.1552 240.768 74.803 241.247 75.2808C241.724 75.7591 242.372 76.0273 243.048 76.0273H276.171C276.847 76.0273 277.495 75.7591 277.973 75.2808C278.451 74.803 278.719 74.1552 278.719 73.4794V50.5479" stroke="white" stroke-miterlimit="10" stroke-linecap="round" stroke-linejoin="round"/>
<circle cx="260.5" cy="14" r="7" fill="white"/>
<rect x="233.5" y="155" width="54" height="4" rx="2" fill="white"/>
<path opacity="0.2" d="M0.5 109L43.0703 92.2712C92.2022 72.9639 146.329 70.394 197.069 84.9596L255.097 101.617C320.271 120.326 390.318 110.593 447.922 74.8248L518.5 31" stroke="white" stroke-linecap="round" stroke-dasharray="2 2"/>
</svg>
