<svg width="27" height="27" viewBox="0 0 27 27" fill="none" xmlns="http://www.w3.org/2000/svg">
<path d="M23.3182 0H3.68182C2.70534 0 1.76885 0.387905 1.07838 1.07838C0.387905 1.76885 0 2.70534 0 3.68182L0 23.3182C0 24.2947 0.387905 25.2311 1.07838 25.9216C1.76885 26.6121 2.70534 27 3.68182 27H23.3182C24.2947 27 25.2311 26.6121 25.9216 25.9216C26.6121 25.2311 27 24.2947 27 23.3182V3.68182C27 2.70534 26.6121 1.76885 25.9216 1.07838C25.2311 0.387905 24.2947 0 23.3182 0ZM9.20455 21.3668C9.20475 21.4417 9.19018 21.5159 9.16166 21.5851C9.13315 21.6543 9.09126 21.7172 9.03839 21.7703C8.98552 21.8233 8.92271 21.8653 8.85356 21.894C8.7844 21.9227 8.71027 21.9375 8.6354 21.9375H6.21C6.135 21.9377 6.0607 21.9231 5.99137 21.8945C5.92204 21.8659 5.85905 21.8238 5.80602 21.7708C5.75298 21.7178 5.71095 21.6548 5.68235 21.5854C5.65374 21.5161 5.63912 21.4418 5.63932 21.3668V11.1989C5.63932 11.0475 5.69944 10.9024 5.80647 10.7953C5.91349 10.6883 6.05865 10.6282 6.21 10.6282H8.6354C8.78649 10.6286 8.93125 10.6889 9.03794 10.7959C9.14463 10.9029 9.20455 11.0478 9.20455 11.1989V21.3668ZM7.42193 9.66477C6.96681 9.66477 6.52191 9.52981 6.14349 9.27696C5.76507 9.02411 5.47013 8.66472 5.29596 8.24424C5.12179 7.82377 5.07622 7.36108 5.16501 6.91471C5.2538 6.46833 5.47296 6.05831 5.79478 5.73649C6.1166 5.41467 6.52663 5.19551 6.973 5.10672C7.41938 5.01793 7.88206 5.0635 8.30254 5.23766C8.72302 5.41183 9.08241 5.70677 9.33526 6.08519C9.58811 6.46361 9.72307 6.90851 9.72307 7.36364C9.72307 7.97394 9.48063 8.55924 9.04908 8.99079C8.61753 9.42233 8.03223 9.66477 7.42193 9.66477ZM21.8823 21.4067C21.8825 21.4757 21.869 21.544 21.8427 21.6077C21.8165 21.6715 21.7778 21.7294 21.7291 21.7781C21.6803 21.8269 21.6224 21.8655 21.5586 21.8918C21.4949 21.9181 21.4266 21.9316 21.3576 21.9314H18.7497C18.6807 21.9316 18.6124 21.9181 18.5486 21.8918C18.4849 21.8655 18.427 21.8269 18.3782 21.7781C18.3295 21.7294 18.2908 21.6715 18.2645 21.6077C18.2382 21.544 18.2248 21.4757 18.225 21.4067V16.6434C18.225 15.9315 18.4336 13.5261 16.3641 13.5261C14.761 13.5261 14.4343 15.1722 14.3698 15.9116V21.4128C14.3698 21.5507 14.3156 21.683 14.2189 21.7811C14.1221 21.8793 13.9907 21.9355 13.8528 21.9375H11.3339C11.265 21.9375 11.1969 21.9239 11.1333 21.8975C11.0697 21.8711 11.012 21.8325 10.9634 21.7837C10.9148 21.735 10.8763 21.6771 10.8501 21.6135C10.8239 21.5499 10.8105 21.4817 10.8107 21.4128V11.1544C10.8105 11.0855 10.8239 11.0174 10.8501 10.9537C10.8763 10.8901 10.9148 10.8322 10.9634 10.7835C11.012 10.7347 11.0697 10.6961 11.1333 10.6697C11.1969 10.6433 11.265 10.6297 11.3339 10.6297H13.8528C13.992 10.6297 14.1254 10.685 14.2238 10.7834C14.3222 10.8818 14.3775 11.0152 14.3775 11.1544V12.0411C14.9727 11.1467 15.8548 10.4594 17.7372 10.4594C21.9068 10.4594 21.8792 14.353 21.8792 16.4915L21.8823 21.4067Z" fill="white"/>
</svg>
