<svg width="27" height="27" viewBox="0 0 27 27" fill="none" xmlns="http://www.w3.org/2000/svg">
<path d="M14.4028 13.0397L20.4788 21.7306H17.9852L13.027 14.6388V14.6384L12.2991 13.5973L6.5072 5.3125H9.0008L13.6749 11.9987L14.4028 13.0397Z" fill="white"/>
<path d="M24.0826 0H2.91741C1.30621 0 0 1.30621 0 2.91741V24.0826C0 25.6938 1.30621 27 2.91741 27H24.0826C25.6938 27 27 25.6938 27 24.0826V2.91741C27 1.30621 25.6938 0 24.0826 0ZM17.2215 22.8965L12.2041 15.5944L5.9224 22.8965H4.29888L11.4833 14.5457L4.29888 4.08961H9.77853L14.5296 11.0042L20.478 4.08961H22.1015L15.2507 12.0532H15.2503L22.7011 22.8965H17.2215Z" fill="white"/>
</svg>
