<svg width="27" height="27" viewBox="0 0 27 27" fill="none" xmlns="http://www.w3.org/2000/svg">
<path d="M18.1682 8.83099L18.1345 8.79724C17.0312 7.69367 15.5705 7.01995 14.0149 6.89725C12.4593 6.77456 10.9109 7.21094 9.64837 8.12792C8.38579 9.04489 7.49184 10.3823 7.12729 11.8995C6.76274 13.4168 6.95152 15.0143 7.65968 16.4048L7.94809 16.9724L7.41116 19.5804L7.40349 19.6141L9.99457 19.0005L10.5852 19.2996C11.8141 19.9101 13.2035 20.1201 14.5579 19.8999C15.9123 19.6798 17.1637 19.0406 18.136 18.0724C19.359 16.8492 20.0489 15.1922 20.0552 13.4625C20.0615 11.7328 19.3838 10.0707 18.1697 8.83866L18.1682 8.83099ZM17.9043 16.1517C17.5868 16.6518 17.0851 17.2624 16.4546 17.4142C15.3501 17.6827 13.6549 17.4234 11.5455 15.4583L11.5195 15.4337C9.66474 13.7155 9.18303 12.2842 9.29962 11.149C9.36406 10.5032 9.90099 9.92173 10.3535 9.53974C10.4252 9.47899 10.5101 9.43579 10.6014 9.41356C10.6926 9.39133 10.7879 9.39069 10.8794 9.41168C10.971 9.43268 11.0564 9.47474 11.1289 9.53451C11.2014 9.59429 11.259 9.67014 11.297 9.75605L11.9797 11.2993C12.0244 11.3987 12.041 11.5085 12.0278 11.6167C12.0145 11.7248 11.9719 11.8273 11.9045 11.913L11.5593 12.3609C11.4871 12.4528 11.4434 12.5639 11.4339 12.6804C11.4243 12.7969 11.4493 12.9136 11.5056 13.016C11.6989 13.3535 12.1622 13.8521 12.6762 14.3154C13.253 14.8354 13.8927 15.3125 14.2977 15.4767C14.4063 15.5201 14.5254 15.5304 14.6398 15.5061C14.7543 15.4817 14.8589 15.424 14.9405 15.3401L15.3409 14.9367C15.4181 14.8605 15.5142 14.8062 15.6193 14.7792C15.7244 14.7523 15.8348 14.7537 15.9392 14.7833L17.5607 15.2435C17.6504 15.2709 17.7326 15.3184 17.801 15.3825C17.8694 15.4466 17.9223 15.5255 17.9555 15.6132C17.9886 15.7009 18.0013 15.795 17.9924 15.8884C17.9836 15.9817 17.9534 16.0718 17.9043 16.1517Z" fill="white"/>
<path d="M23.3182 0H3.68182C2.70534 0 1.76885 0.387905 1.07838 1.07838C0.387905 1.76885 0 2.70534 0 3.68182L0 23.3182C0 24.2947 0.387905 25.2311 1.07838 25.9216C1.76885 26.6121 2.70534 27 3.68182 27H23.3182C24.2947 27 25.2311 26.6121 25.9216 25.9216C26.6121 25.2311 27 24.2947 27 23.3182V3.68182C27 2.70534 26.6121 1.76885 25.9216 1.07838C25.2311 0.387905 24.2947 0 23.3182 0ZM21.8654 13.6994C21.8201 15.101 21.4235 16.4687 20.712 17.677C20.0005 18.8854 18.9968 19.8956 17.7931 20.615C16.5895 21.3344 15.2244 21.74 13.8232 21.7944C12.422 21.8488 11.0295 21.5504 9.77369 20.9265L5.54727 21.9283C5.48322 21.9432 5.41615 21.9385 5.35484 21.9146C5.29353 21.8908 5.24083 21.8491 5.20364 21.7948C5.17853 21.7588 5.16109 21.7181 5.15238 21.6751C5.14367 21.632 5.14389 21.5877 5.15301 21.5448L6.04125 17.2324C5.46188 16.0948 5.15044 14.8397 5.13075 13.5632C5.11106 12.2866 5.38364 11.0225 5.92765 9.86754C6.47165 8.71256 7.27266 7.69734 8.26937 6.89954C9.26609 6.10175 10.4321 5.54254 11.6782 5.26469C12.9243 4.98685 14.2174 4.99773 15.4586 5.29652C16.6998 5.5953 17.8563 6.17407 18.8394 6.98852C19.8225 7.80298 20.6063 8.83155 21.1308 9.99552C21.6553 11.1595 21.9066 12.428 21.8654 13.704V13.6994Z" fill="white"/>
</svg>
